<?xml version="1.0" encoding="UTF-8"?>
<svg id="Layer_2" data-name="Layer 2" xmlns="http://www.w3.org/2000/svg" xmlns:xlink="http://www.w3.org/1999/xlink" viewBox="0 0 1542.68 270.04">
  <defs>
    <style>
      .cls-1 {
        fill: #662d91;
      }

      .cls-2 {
        fill: url(#linear-gradient-2);
      }

      .cls-3 {
        fill: url(#linear-gradient);
      }

      .cls-4 {
        stroke: #231f20;
        stroke-miterlimit: 10;
      }

      .cls-4, .cls-5 {
        fill: #383838;
      }

      .cls-6 {
        fill: #ff55f3;
      }
    </style>
    <linearGradient id="linear-gradient" x1="43.41" y1="183.01" x2="43.41" y2="107.04" gradientUnits="userSpaceOnUse">
      <stop offset="0" stop-color="#662d91"/>
      <stop offset="1" stop-color="#383838"/>
    </linearGradient>
    <linearGradient id="linear-gradient-2" x1="70.54" y1="210.14" x2="146.51" y2="210.14" gradientUnits="userSpaceOnUse">
      <stop offset="0" stop-color="#662d91"/>
      <stop offset="1" stop-color="#ff55f3"/>
    </linearGradient>
  </defs>
  <g id="Layer_1-2" data-name="Layer 1">
    <path class="cls-5" d="M291.41,74.19h31.56c1.53,0,2.87,1.02,3.28,2.49l23.95,86.13c.9,3.24,5.45,3.35,6.51.16l28.65-86.45c.46-1.39,1.76-2.33,3.23-2.33h25.08c1.47,0,2.77.94,3.23,2.33l28.65,86.45c1.06,3.19,5.61,3.08,6.51-.16l23.95-86.13c.41-1.47,1.75-2.49,3.28-2.49h31.56c2.31,0,3.95,2.25,3.24,4.44l-43.39,135.22c-.45,1.41-1.76,2.36-3.24,2.36h-32.11c-1.47,0-2.77-.94-3.23-2.33l-27.75-83.78c-1.03-3.11-5.43-3.11-6.46,0l-27.75,83.78c-.46,1.39-1.76,2.33-3.23,2.33h-32.11c-1.48,0-2.79-.96-3.24-2.36l-43.39-135.22c-.7-2.2.93-4.44,3.24-4.44Z"/>
    <path class="cls-5" d="M543.4,74.19h30.24c1.88,0,3.4,1.52,3.4,3.4v7.1c0,3.29,4.23,4.68,6.15,2.01,7.5-10.41,17.64-15.75,30.02-15.75,4.09,0,8.66.79,11.74,1.67,1.56.45,2.59,1.94,2.45,3.57l-2.33,26.77c-.19,2.15-2.29,3.58-4.36,2.97-3.81-1.13-8.3-1.75-12.79-1.75-20.58,0-30.29,15-30.29,43.23v65.41c0,1.88-1.52,3.4-3.4,3.4h-30.83c-1.88,0-3.4-1.52-3.4-3.4V77.6c0-1.88,1.52-3.4,3.4-3.4Z"/>
    <path class="cls-5" d="M730.93,169.17v-62.47c0-1.88-1.52-3.4-3.4-3.4h-13.48c-1.88,0-3.4-1.52-3.4-3.4v-22.3c0-1.88,1.52-3.4,3.4-3.4h13.48c1.88,0,3.4-1.52,3.4-3.4v-33.77c0-1.88,1.52-3.4,3.4-3.4h30.83c1.88,0,3.4,1.52,3.4,3.4v33.77c0,1.88,1.52,3.4,3.4,3.4h26.13c1.88,0,3.4,1.52,3.4,3.4v22.3c0,1.88-1.52,3.4-3.4,3.4h-26.13c-1.88,0-3.4,1.52-3.4,3.4v56.29c0,18.23,2.94,25.88,17.06,25.88,3.68,0,7.11-.64,10.03-1.58,2.09-.67,4.26.81,4.42,3l1.54,21.82c.11,1.56-.86,3.01-2.35,3.48-7.66,2.42-16.41,3.85-25.4,3.85-34.4,0-42.93-18.53-42.93-50.28Z"/>
    <path class="cls-5" d="M819,146.83c0-45.29,32.64-75.87,75.57-75.87s68.52,28.82,68.52,67.93c0,4.51-.35,11.96-.64,16.52-.12,1.79-1.6,3.19-3.4,3.19h-95.47c-2.26,0-3.9,2.17-3.27,4.34,5.38,18.75,20.94,27.42,39.55,27.42,16.35,0,30.58-6.15,39.06-13.36,1.51-1.28,3.79-1.03,4.96.57l11.31,15.45c1.02,1.39.83,3.33-.43,4.51-9.59,8.94-32.31,21.94-60.78,21.94-40.58,0-74.98-26.17-74.98-72.63ZM892.51,99.19c-19.9,0-29.47,13.77-33.21,28.72-.54,2.14,1.1,4.22,3.31,4.22h59.48c2.04,0,3.63-1.79,3.38-3.82-1.68-13.86-11.17-29.12-32.96-29.12Z"/>
    <path class="cls-5" d="M990,145.65c0-45.29,33.52-74.69,77.04-74.69s77.04,29.41,77.04,74.69-33.82,73.81-77.04,73.81-77.04-28.82-77.04-73.81ZM1107,144.35c0-25.15-14.75-44.85-39.96-44.85s-39.96,19.7-39.96,44.85,14.14,45.15,39.96,45.15,39.96-19.7,39.96-45.15Z"/>
    <path class="cls-5" d="M1173.79,74.19h29.36c1.88,0,3.4,1.52,3.4,3.4v9.57c0,3.12,3.85,4.6,5.93,2.27,12.16-13.55,27.39-18.49,43.47-18.49,41.46,0,67.05,32.64,67.05,74.4s-26.47,74.1-69.69,74.1c-15.78,0-29.16-4.81-39.63-15.1-2.19-2.15-5.88-.56-5.8,2.51s.15,6.57.15,9.94v49.82c0,1.88-1.52,3.4-3.4,3.4h-30.83c-1.88,0-3.4-1.52-3.4-3.4V77.6c0-1.88,1.52-3.4,3.4-3.4ZM1287,144.77c0-24.11-15.24-43.23-40.53-43.23-23.47,0-39.62,17.06-39.62,43.23,0,23.52,15.85,44.11,40.84,44.11s39.31-20.58,39.31-44.11Z"/>
    <path class="cls-5" d="M1353.26,74.19h29.49c1.8,0,3.26,1.52,3.26,3.4v135.22c0,1.88-1.46,3.4-3.26,3.4h-29.49c-1.8,0-3.26-1.52-3.26-3.4V77.6c0-1.88,1.46-3.4,3.26-3.4Z"/>
    <path class="cls-5" d="M1413,175.94c0-31.46,28.52-42.34,57.93-44.4l30.94-2.13c1.78-.12,3.17-1.61,3.17-3.4v-.65c0-16.47-11.17-26.17-32.05-26.17-12.91,0-25.33,4.43-36.8,10.81-1.73.96-3.92.23-4.74-1.57l-8.91-19.6c-.74-1.63-.09-3.57,1.5-4.41,18.15-9.73,36.08-13.45,54.54-13.45,42.34,0,64.1,19.7,64.1,63.81v78.05c0,1.88-1.52,3.4-3.4,3.4h-29.36c-1.88,0-3.4-1.52-3.4-3.4v-3.7c0-2.95-3.48-4.49-5.68-2.53-8.13,7.28-21.88,12.87-38.43,12.87-27.35,0-49.4-15.59-49.4-43.52ZM1505.33,177.16v-21.68c0-1.97-1.67-3.53-3.64-3.39l-21.35,1.51c-20,1.47-29.11,7.94-29.11,20s9.7,20.29,23.23,20.29,24.79-7.76,30.14-14.6c.47-.6.73-1.35.73-2.11Z"/>
    <circle class="cls-4" cx="666" cy="27.5" r="27"/>
    <circle class="cls-4" cx="1368" cy="27.5" r="27"/>
    <path class="cls-5" d="M650.9,74.19h29.49c1.8,0,3.26,1.52,3.26,3.4v135.22c0,1.88-1.46,3.4-3.26,3.4h-29.49c-1.8,0-3.26-1.52-3.26-3.4V77.6c0-1.88,1.46-3.4,3.26-3.4Z"/>
    <g>
      <circle class="cls-5" cx="43.41" cy="79.91" r="43.41"/>
      <circle class="cls-5" cx="173.64" cy="79.91" r="43.41"/>
      <circle class="cls-1" cx="43.41" cy="210.14" r="43.41"/>
      <circle class="cls-6" cx="173.64" cy="210.14" r="43.41"/>
      <path class="cls-3" d="M54.26,145.03c0-11.99,6.36-24.27,16.28-31.23-7.43-5.22-16.86-6.76-27.13-6.76s-19.7,1.51-27.13,6.72c9.92,6.96,16.28,19.27,16.28,31.26s-6.36,24.27-16.28,31.23c7.43,5.22,16.86,6.76,27.13,6.76s19.7-1.49,27.13-6.71c-9.92-6.96-16.28-19.29-16.28-31.28Z"/>
      <path class="cls-2" d="M108.53,221c11.99,0,24.27,6.36,31.23,16.28,5.22-7.43,6.76-16.86,6.76-27.13s-1.51-19.7-6.72-27.13c-6.96,9.92-19.27,16.28-31.26,16.28s-24.27-6.36-31.23-16.28c-5.22,7.43-6.76,16.86-6.76,27.13s1.49,19.7,6.71,27.13c6.96-9.92,19.29-16.28,31.28-16.28Z"/>
    </g>
  </g>
</svg>